<svg xmlns="http://www.w3.org/2000/svg" viewBox="0 0 64 64">
  <title>Modbus Connect</title>
  <path fill="#F49500" d="m 11.49,6.86 h 29.76 c 8.56,0 15.83,6.88 15.83,15.84 v 29.8 c 0,6.37 -5.13,11.49 -11.49,11.49 H 11.49 C 5.13,64 0,58.87 0,52.51 V 18.36 C 0,11.99 5.13,6.86 11.49,6.86 Z"/>
  <g fill="#FCC000">
    <circle cx="58" cy="27.08" r="6"/>
    <circle cx="36.67" cy="6" r="6"/>
    <circle cx="53.42" cy="10.38" r="6"/>
  </g>
  <g fill="none" stroke="#F2F4F9" stroke-width="4.7" stroke-linecap="round">
    <path d="M9.6 39.22h37.89"/>
    <path d="M28.54 39.22V25.96"/>
    <path d="M17.17 39.22v8.53"/>
    <path d="M39.91 39.22v8.53"/>
  </g>
  <g fill="#F2F4F9">
    <circle cx="28.54" cy="20.8" r="7.5"/>
    <circle cx="17.17" cy="52.01" r="6"/>
    <circle cx="39.91" cy="52.01" r="6"/>
  </g>
</svg>
