<svg xmlns="http://www.w3.org/2000/svg" viewBox="0 0 374.08 64">
  <title>Modbus Connect</title>
  <rect width="64" height="64" rx="14.5" fill="#18BCF2"/>
  <g fill="none" stroke="#F2F4F9" stroke-width="5" stroke-linecap="round">
    <path d="M12 35h40"/>
    <path d="M32 35V21"/>
    <path d="M20 35v9"/>
    <path d="M44 35v9"/>
  </g>
  <g fill="#F2F4F9">
    <circle cx="32" cy="15" r="7.5"/>
    <circle cx="20" cy="48.5" r="6"/>
    <circle cx="44" cy="48.5" r="6"/>
  </g>
  <g fill="#1D2126">
    <path transform="translate(79.00 45.0) scale(0.037143 -0.037143)" d="M82.80029296875 0V700H207.42926025390625L426.58990478515625 375.8990478515625L645.1805419921875 700H769.8095092773438V0H653.7803955078125V516.601318359375L426.44989013671875 180.47052001953125L198.82940673828125 515.4613037109375V0Z"/>
    <path transform="translate(110.98 45.0) scale(0.037143 -0.037143)" d="M291.9312111322134 -12Q216.51237366097104 -12 158.3770197768884 21.5Q100.24166589280578 55 67.24592449913726 114.0Q34.25018310546875 173 34.25018310546875 250Q34.25018310546875 327 66.71739464788861 386.0Q99.18460619030847 445 157.31138814528597 478.5Q215.43817010026348 512 289.7985578264509 512Q365.2062749572325 512 423.33305691221 478.5Q481.4598388671875 445 513.9648132324219 386.0Q546.4697875976562 327 546.4697875976562 250Q546.4697875976562 173 513.9977881308714 114.0Q481.52578866408646 55 423.9141767068875 21.5Q366.3025647496885 -12 291.9312111322134 -12ZM291.8599853515625 90.72918701171875Q333.4254430551998 90.72918701171875 364.9844016820355 111.1189287710881Q396.54336030887123 131.50867053045744 414.6320317169356 167.28689663652062Q432.720703125 203.06512274258378 432.720703125 250Q432.720703125 296.9348772574162 414.5902141746617 332.7131033634794Q396.45972522432334 368.49132946954256 364.0562981641442 388.8810712289119Q331.6528711039651 409.27081298828125 289.99132202659194 409.27081298828125Q248.32977294921875 409.27081298828125 216.30118854229266 388.8933952673158Q184.27260413536658 368.5159775463503 166.1359358567458 332.7593766397505Q147.999267578125 297.00277573315066 147.999267578125 250.09626701696595Q147.999267578125 203.18975830078125 166.40936279296875 167.4395751953125Q184.8194580078125 131.68939208984375 217.39700980808425 111.20928955078125Q249.97456160835597 90.72918701171875 291.8599853515625 90.72918701171875Z"/>
    <path transform="translate(132.86 45.0) scale(0.037143 -0.037143)" d="M260.25018310546875 -12Q192.1002197265625 -12 141.31521606445312 20.425018310546875Q90.53021240234375 52.85003662109375 62.39019775390625 112.13504028320312Q34.25018310546875 171.4200439453125 34.25018310546875 250Q34.25018310546875 329.5799560546875 62.39019775390625 388.3649597167969Q90.53021240234375 447.14996337890625 141.31521606445312 479.5749816894531Q192.1002197265625 512 260.25018310546875 512Q311.6602783203125 512 352.0003662109375 489.4449157714844Q392.3404541015625 466.88983154296875 417.760498046875 426.19970703125V700H529.359619140625V0H423.3404541015625L419.48046875 75.95025634765625Q394.0604248046875 34.400146484375 353.29034423828125 11.2000732421875Q312.520263671875 -12 260.25018310546875 -12ZM287.72991943359375 90.1591796875Q324.9801025390625 90.1591796875 353.81024169921875 109.56430053710938Q382.640380859375 128.96942138671875 399.5554504394531 163.71463012695312Q416.47052001953125 198.4598388671875 417.760498046875 242.55010986328125V256.8798828125Q416.47052001953125 301.5401611328125 399.5554504394531 336.07037353515625Q382.640380859375 370.6005859375 353.5952453613281 390.0057067871094Q324.55010986328125 409.41082763671875 286.72991943359375 409.41082763671875Q246.76971435546875 409.41082763671875 215.58456420898438 389.1457214355469Q184.3994140625 368.880615234375 166.84432983398438 332.8454284667969Q149.28924560546875 296.81024169921875 149.28924560546875 250Q149.28924560546875 203.18975830078125 167.34432983398438 167.15457153320312Q185.3994140625 131.119384765625 216.58456420898438 110.6392822265625Q247.76971435546875 90.1591796875 287.72991943359375 90.1591796875Z"/>
    <path transform="translate(155.11 45.0) scale(0.037143 -0.037143)" d="M331.6396484375 -12Q279.36956787109375 -12 239.0994873046875 11.2000732421875Q198.82940673828125 34.400146484375 172.40936279296875 76.3802490234375L168.119384765625 0H62.1002197265625V700H173.6993408203125V425.76971435546875Q200.119384765625 466.88983154296875 239.95947265625 489.4449157714844Q279.799560546875 512 331.6396484375 512Q399.78961181640625 512 450.5746154785156 479.5749816894531Q501.359619140625 447.14996337890625 529.4996337890625 388.3649597167969Q557.6396484375 329.5799560546875 557.6396484375 249.98313754212623Q557.6396484375 171.4200439453125 529.4996337890625 112.13504028320312Q501.359619140625 52.85003662109375 450.5746154785156 20.425018310546875Q399.78961181640625 -12 331.6396484375 -12ZM304.159912109375 90.1591796875Q344.47192937677556 90.1591796875 375.4811734286221 110.6392822265625Q406.49041748046875 131.119384765625 424.5455017089844 167.17248789469403Q442.6005859375 203.22559102376303 442.6005859375 250.0179163614909Q442.6005859375 296.81024169921875 425.1293138407044 332.81178958399767Q407.6580417439089 368.8133374687766 376.59800246071677 389.11208255274767Q345.5379631775247 409.41082763671875 305.159912109375 409.41082763671875Q266.91683682528407 409.41082763671875 237.03943425958806 389.09536913336433Q207.16203169389206 368.77991063000985 190.43068625710228 332.74872007689066Q173.6993408203125 296.7175295237715 173.6993408203125 249.95364391227636Q173.6993408203125 203.18975830078125 190.40465787561928 167.05072976456208Q207.10997493092606 130.9117012283429 236.54315259979992 110.53544045792145Q265.9763302686738 90.1591796875 304.159912109375 90.1591796875Z"/>
    <path transform="translate(177.39 45.0) scale(0.037143 -0.037143)" d="M241.09027099609375 -12Q182.37030029296875 -12 139.80526733398438 11.92999267578125Q97.240234375 35.8599853515625 74.3201904296875 86.71499633789062Q51.400146484375 137.57000732421875 51.400146484375 217.99005126953125V500H162.999267578125V244Q162.999267578125 184.64959716796875 176.90936279296875 151.96942138671875Q190.8194580078125 119.28924560546875 215.57461547851562 106.15420532226562Q240.32977294921875 93.0191650390625 271.86993408203125 92.58917236328125Q328.68017578125 92.1591796875 359.65032958984375 130.25442504882812Q390.6204833984375 168.34967041015625 390.6204833984375 239.13006591796875V500H502.2196044921875V0H397.200439453125L392.48046875 70.69012451171875Q367.91046142578125 31.13006591796875 329.49041748046875 9.565032958984375Q291.07037353515625 -12 241.09027099609375 -12Z"/>
    <path transform="translate(198.64 45.0) scale(0.037143 -0.037143)" d="M244.28331637843337 -12Q193.73346897253307 -12 152.01678535096644 3.2082909460834177Q110.3001017293998 18.416581892166835 80.14165818921668 45.77492370295015Q49.98321464903357 73.13326551373346 34.24974567650051 110.01678535096643L130.53407934893184 152.9506612410987Q146.10071210579858 125.26754832146491 175.3588504577823 106.35096642929807Q204.616988809766 87.43438453713122 241.16683621566634 87.43438453713122Q279.8331637843337 87.43438453713122 303.21617497456765 100.47583926754831Q326.5991861648016 113.51729399796541 326.5991861648016 137.7502543234995Q326.5991861648016 160.8499491353001 308.55773143438455 173.45803662258393Q290.51627670396743 186.06612410986776 257.58341810783315 194.33265513733468L210.73346897253307 206.61597151576805Q140.1500508646999 225.33265513733468 100.06663275686674 264.8494404883011Q59.98321464903357 304.36622583926754 59.98321464903357 355.2497456765005Q59.98321464903357 429.9832146490336 108.34994913530011 470.9916073245168Q156.71668362156663 512 248 512Q293.8667344862665 512 332.6668362156663 498.42497456765005Q371.46693794506615 484.8499491353001 399.192014242116 460.41658189216685Q426.9170905391658 435.9832146490336 438.2004069175992 403.26653102746695L344.7828077314344 360.91607324516787Q335.23296032553407 386.2990844354018 307.09969481180065 399.7906917599186Q278.96642929806717 413.2822990844354 245.4501525940997 413.2822990844354Q211.08392675483213 413.2822990844354 192.05086469989828 398.66581892166835Q173.0178026449644 384.04933875890134 173.0178026449644 358.0996948118006Q173.0178026449644 342.5498474059003 189.99262461851475 330.3667344862665Q206.9674465920651 318.1836215666328 239.48372329603257 310.2004069175992L298.2507629704985 295.61698880976604Q347.2507629704985 283.61698880976604 378.16734486266535 258.2502543234995Q409.08392675483213 232.88351983723297 424.000508646999 201.37512716174973Q438.9170905391658 169.86673448626652 438.9170905391658 137.73346897253307Q438.9170905391658 92.73346897253306 413.4086978636826 58.8001017293998Q387.9003051881994 24.86673448626653 344.10020345879957 6.433367243133265Q300.3001017293998 -12 244.28331637843337 -12Z"/>
    <path transform="translate(225.19 45.0) scale(0.037143 -0.037143)" d="M386.4200439453125 -12Q284.840087890625 -12 206.6201171875 34.5Q128.400146484375 81 83.82516479492188 162.5Q39.25018310546875 244 39.25018310546875 350Q39.25018310546875 456 83.5401611328125 537.5Q127.83013916015625 619 205.76510620117188 665.5Q283.7000732421875 712 384.71002197265625 712Q453.16986083984375 712 513.3247985839844 687.7050476074219Q573.479736328125 663.4100952148438 619.9097290039062 619.9651794433594Q666.3397216796875 576.520263671875 691.3397216796875 519.640380859375L585.4506225585938 476.75054931640625Q567.4605712890625 515.4506225585938 536.6254577636719 544.5106811523438Q505.79034423828125 573.5707397460938 466.8852233886719 589.7057800292969Q427.9801025390625 605.8408203125 384.71002197265625 605.8408203125Q318.60980224609375 605.8408203125 267.2146301269531 573.0757141113281Q215.8194580078125 540.3106079101562 186.62435913085938 482.7754211425781Q157.42926025390625 425.240234375 157.42926025390625 350Q157.42926025390625 274.6197509765625 186.83935546875 216.58456420898438Q216.24945068359375 158.54937744140625 268.42962646484375 125.78427124023438Q320.60980224609375 93.0191650390625 387.71002197265625 93.0191650390625Q432.41009521484375 93.0191650390625 470.8852233886719 110.50921630859375Q509.3603515625 127.999267578125 539.5504760742188 159.05435180664062Q569.7406005859375 190.10943603515625 588.16064453125 230.51953125L694.0497436523438 187.62969970703125Q668.9097290039062 129.039794921875 622.7647399902344 83.66986083984375Q576.6197509765625 38.2999267578125 515.7498168945312 13.14996337890625Q454.8798828125 -12 386.4200439453125 -12Z"/>
    <path transform="translate(252.35 45.0) scale(0.037143 -0.037143)" d="M291.9312111322134 -12Q216.51237366097104 -12 158.3770197768884 21.5Q100.24166589280578 55 67.24592449913726 114.0Q34.25018310546875 173 34.25018310546875 250Q34.25018310546875 327 66.71739464788861 386.0Q99.18460619030847 445 157.31138814528597 478.5Q215.43817010026348 512 289.7985578264509 512Q365.2062749572325 512 423.33305691221 478.5Q481.4598388671875 445 513.9648132324219 386.0Q546.4697875976562 327 546.4697875976562 250Q546.4697875976562 173 513.9977881308714 114.0Q481.52578866408646 55 423.9141767068875 21.5Q366.3025647496885 -12 291.9312111322134 -12ZM291.8599853515625 90.72918701171875Q333.4254430551998 90.72918701171875 364.9844016820355 111.1189287710881Q396.54336030887123 131.50867053045744 414.6320317169356 167.28689663652062Q432.720703125 203.06512274258378 432.720703125 250Q432.720703125 296.9348772574162 414.5902141746617 332.7131033634794Q396.45972522432334 368.49132946954256 364.0562981641442 388.8810712289119Q331.6528711039651 409.27081298828125 289.99132202659194 409.27081298828125Q248.32977294921875 409.27081298828125 216.30118854229266 388.8933952673158Q184.27260413536658 368.5159775463503 166.1359358567458 332.7593766397505Q147.999267578125 297.00277573315066 147.999267578125 250.09626701696595Q147.999267578125 203.18975830078125 166.40936279296875 167.4395751953125Q184.8194580078125 131.68939208984375 217.39700980808425 111.20928955078125Q249.97456160835597 90.72918701171875 291.8599853515625 90.72918701171875Z"/>
    <path transform="translate(274.22 45.0) scale(0.037143 -0.037143)" d="M62.1002197265625 0V500H167.119384765625L171.83935546875 429.30987548828125Q196.40936279296875 469.43994140625 234.82940673828125 490.719970703125Q273.24945068359375 512 323.22955322265625 512Q382.51953125 512 425.0845642089844 488.07000732421875Q467.64959716796875 464.1400146484375 490.56964111328125 413.57000732421875Q513.4896850585938 363 512.919677734375 282.00994873046875V0H401.320556640625V256Q401.320556640625 315.7803955078125 387.41046142578125 348.2455749511719Q373.5003662109375 380.71075439453125 349.03021240234375 393.8457946777344Q324.56005859375 406.9808349609375 292.44989013671875 407.41082763671875Q235.6396484375 408.27081298828125 204.66949462890625 370.1755676269531Q173.6993408203125 332.080322265625 173.6993408203125 260.86993408203125V0Z"/>
    <path transform="translate(295.47 45.0) scale(0.037143 -0.037143)" d="M62.1002197265625 0V500H167.119384765625L171.83935546875 429.30987548828125Q196.40936279296875 469.43994140625 234.82940673828125 490.719970703125Q273.24945068359375 512 323.22955322265625 512Q382.51953125 512 425.0845642089844 488.07000732421875Q467.64959716796875 464.1400146484375 490.56964111328125 413.57000732421875Q513.4896850585938 363 512.919677734375 282.00994873046875V0H401.320556640625V256Q401.320556640625 315.7803955078125 387.41046142578125 348.2455749511719Q373.5003662109375 380.71075439453125 349.03021240234375 393.8457946777344Q324.56005859375 406.9808349609375 292.44989013671875 407.41082763671875Q235.6396484375 408.27081298828125 204.66949462890625 370.1755676269531Q173.6993408203125 332.080322265625 173.6993408203125 260.86993408203125V0Z"/>
    <path transform="translate(316.71 45.0) scale(0.037143 -0.037143)" d="M285.26653102746695 -12Q211.83316378433366 -12 155.25813835198372 21.5Q98.68311291963377 55 66.46642929806714 114.0Q34.24974567650051 173 34.24974567650051 250Q34.24974567650051 327 67.04145473041709 386.0Q99.83316378433368 445 157.19989827060022 478.5Q214.56663275686674 512 288.8667344862665 512Q356.28331637843337 512 410.08341810783315 477.5Q463.88351983723294 443 495.25864699898267 378.1998982706002Q526.6337741607324 313.39979654120043 526.6337741607324 222.93285859613428H149.86775178026448Q154.86775178026448 160.18362156663275 196.4092065106816 124.16734486266532Q237.9506612410987 88.15106815869787 295.3001017293998 88.15106815869787Q341.11648016276706 88.15106815869787 371.22456765005086 108.76754832146491Q401.3326551373347 129.38402848423195 417.882502543235 162.2004069175992L516.616988809766 120.45015259409969Q496.1836215666328 79.86673448626654 463.53357070193283 49.93336724313327Q430.88351983723294 20 386.3001017293998 4.0Q341.71668362156663 -12 285.26653102746695 -12ZM156.58443540183112 308.7502543234995H405.7324516785351Q402.7324516785351 344.56663275686674 384.882502543235 368.2413530010173Q367.03255340793487 391.91607324516787 340.9160732451678 404.03255340793487Q314.7995930824008 416.14903357070193 286 416.14903357070193Q258.2004069175992 416.14903357070193 229.59231943031537 404.39089521871824Q200.98423194303155 392.6327568667345 180.78433367243133 368.8163784333673Q160.58443540183112 345 156.58443540183112 308.7502543234995Z"/>
    <path transform="translate(337.48 45.0) scale(0.037143 -0.037143)" d="M295.72991943359375 -12Q219.42999267578125 -12 160.27505493164062 21.5Q101.1201171875 55 67.68515014648438 114.21499633789062Q34.25018310546875 173.42999267578125 34.25018310546875 250Q34.25018310546875 327 67.400146484375 386.0Q100.55010986328125 445 159.27505493164062 478.5Q218 512 293.72991943359375 512Q368.16986083984375 512 427.8997802734375 476.4150695800781Q487.62969970703125 440.83013916015625 516.7697143554688 375.37030029296875L413.17059326171875 335.33050537109375Q396.6204833984375 368.440673828125 363.7203369140625 387.9957580566406Q330.8201904296875 407.55084228515625 289.42999267578125 407.55084228515625Q247.8997802734375 407.55084228515625 216.07461547851562 387.500732421875Q184.24945068359375 367.45062255859375 166.12435913085938 331.9154357910156Q147.999267578125 296.3802490234375 147.999267578125 250Q147.999267578125 203.6197509765625 166.40936279296875 168.299560546875Q184.8194580078125 132.9793701171875 217.359619140625 112.71426391601562Q249.8997802734375 92.44915771484375 291.42999267578125 92.44915771484375Q332.960205078125 92.44915771484375 365.93035888671875 113.71426391601562Q398.9005126953125 134.9793701171875 415.31060791015625 171.50958251953125L519.479736328125 131.8997802734375Q490.3397216796875 63.58990478515625 430.539794921875 25.794952392578125Q370.7398681640625 -12 295.72991943359375 -12Z"/>
    <path transform="translate(357.98 45.0) scale(0.037143 -0.037143)" d="M261.159912109375 -12Q181.840087890625 -12 140.2601318359375 27.724945068359375Q98.68017578125 67.44989013671875 98.68017578125 140.8997802734375V404.15069580078125H15.7000732421875V500H98.68017578125V656H210.279296875V500H345.19970703125V404.15069580078125H210.279296875V161.96942138671875Q210.279296875 127.12933349609375 226.82940673828125 109.14425659179688Q243.3795166015625 91.1591796875 274.919677734375 91.1591796875Q285.19970703125 91.1591796875 296.9147033691406 95.30416870117188Q308.62969970703125 99.44915771484375 324.1798095703125 110.14923095703125L364.6595458984375 24.60980224609375Q339.3795166015625 6.88983154296875 313.20965576171875 -2.555084228515625Q287.039794921875 -12 261.159912109375 -12Z"/>
  </g>
</svg>
